<svg width="128" height="129" viewBox="0 0 128 129" fill="none" xmlns="http://www.w3.org/2000/svg">
<path d="M102.975 92.8823L101.035 90.9532C100.381 90.303 100.635 89.1927 101.506 88.8905L113.314 84.7942L104.464 83.0101C103.377 82.7911 103.095 81.3692 104.015 80.7517L108.231 77.9243C108.328 77.8593 108.434 77.8082 108.545 77.7725L113.314 76.2427L119.693 73.4368C120.555 73.0578 121.51 73.7333 121.439 74.6719L120.678 84.7942L120.321 89.545L119.489 103.752C119.433 104.698 118.383 105.239 117.58 104.735L113.572 102.218C113.403 102.111 113.261 101.965 113.16 101.793L110.161 96.6804C110.036 96.4679 109.852 96.2971 109.63 96.1895L103.309 93.1198C103.186 93.0597 103.072 92.9794 102.975 92.8823Z" fill="#EFB479"/>
<path d="M113.314 84.7942L104.464 83.0101C103.377 82.7911 103.095 81.3692 104.015 80.7517L108.231 77.9243C108.328 77.8593 108.434 77.8082 108.545 77.7725L113.314 76.2427L119.693 73.4368C120.555 73.0578 121.51 73.7333 121.439 74.6719L120.321 89.545L119.489 103.752C119.433 104.698 118.383 105.239 117.58 104.735L113.572 102.218C113.403 102.111 113.261 101.965 113.16 101.793L110.161 96.6804C110.036 96.4679 109.852 96.2971 109.63 96.1895L103.309 93.1198C103.186 93.0597 103.072 92.9794 102.975 92.8823L101.035 90.9532C100.381 90.303 100.635 89.1927 101.506 88.8905L113.314 84.7942ZM113.314 84.7942L120.678 84.7942" stroke="black" stroke-width="1.8708" stroke-linecap="round"/>
<path d="M10.5745 53.8527L10.254 54.585C8.46186 58.6791 11.6817 63.2058 16.1373 62.8561C17.4788 62.7507 18.8162 63.1059 19.9287 63.8629L20.9907 64.5854C21.1073 64.6648 21.1559 64.8127 21.1091 64.9458L18.9937 70.956L16.8829 80.9131C16.625 82.1301 16.5981 83.3847 16.8037 84.6116L17.893 91.1111C18.0656 92.141 18.957 92.8954 20.0013 92.8954C20.945 92.8954 21.7771 92.2766 22.0486 91.3728L24.5329 83.1045C24.8102 82.1818 25.2197 81.3041 25.7485 80.4987L29.9677 74.074C30.9868 72.5999 32.8639 71.9864 34.5569 72.574L47.5239 77.0751C48.047 77.2567 48.554 77.4815 49.0398 77.7472L63.987 85.9224L76.0536 91.4162C76.6821 91.7024 77.3387 91.9225 78.0127 92.0731L95.4789 95.9749C97.3225 96.3867 98.6333 98.0227 98.6333 99.9116V100.786C98.6333 102.279 99.7253 103.548 101.202 103.77C102.694 103.995 104.123 103.083 104.548 101.635L105.135 99.6348C105.672 97.8028 105.203 95.8232 103.902 94.4266L101.988 92.3729C100.717 91.01 99.091 90.0299 97.2925 89.5437L84.8153 86.1707C84.2044 86.0056 83.6106 85.7827 83.0419 85.5051L76.8703 82.4922C75.8147 81.9769 74.8584 81.2792 74.0454 80.4313L69.8967 76.1044C69.2456 75.4253 68.9992 74.4538 69.2481 73.5465C69.5666 72.3849 70.6225 71.5796 71.8269 71.5796H77.2558C77.8151 71.5796 78.3734 71.6276 78.9246 71.7229L83.4498 72.5055C84.6776 72.7178 85.8548 73.1583 86.9204 73.804L94.1647 78.194C94.9435 78.666 95.7957 79.0047 96.686 79.1961L97.194 79.3053C99.6484 79.833 102.201 79.0538 103.942 77.2453L106.739 74.3401C107.58 73.4665 107.668 72.1133 106.946 71.139C106.37 70.362 105.395 69.9898 104.448 70.1853L101.202 70.8553C98.9777 71.3144 96.6643 70.7647 94.8844 69.3542L88.7629 64.5032C88.0308 63.9231 87.2209 63.4487 86.3569 63.0938L82.8136 61.6383C81.2616 61.0008 79.5738 60.765 77.9064 60.9527L72.3806 61.5748C72.2196 61.593 72.0626 61.6069 71.9008 61.6162C70.59 61.6917 64.1605 62.0265 59.9109 61.602C55.5494 61.1664 49.1445 59.4973 47.8975 59.1653C47.7524 59.1266 47.6143 59.076 47.4779 59.013C45.6033 58.1475 45.3515 55.5851 47.0218 54.3713L50.4947 51.8475C51.1206 51.3927 51.6376 50.8045 52.0083 50.1253L52.6105 49.0223C53.7755 46.888 54.0844 44.3903 53.4743 42.0365L51.9855 36.2931C51.7681 35.4545 51.0113 34.8688 50.1449 34.8688C49.0846 34.8688 48.2291 35.736 48.2436 36.7962L48.2915 40.3004C48.3036 41.1843 48.0968 42.0574 47.6896 42.842L47.069 44.0376C46.2395 45.6359 44.993 46.9799 43.4615 47.927L35.9938 52.5458C34.0237 53.7643 31.6911 54.2593 29.396 53.9461L27.2011 53.6465C25.7378 53.4467 24.3738 52.794 23.3003 51.7798C21.8313 50.3919 19.8387 49.6987 17.8255 49.8751L15.8752 50.046C13.5451 50.2502 11.5124 51.71 10.5745 53.8527Z" fill="#EFB479" stroke="black" stroke-width="1.8708"/>
<mask id="path-4-inside-1_417_18" fill="white">
<path d="M40.7332 27.1136C40.3665 27.9266 40.9019 28.6853 41.4589 29.0109C42.1005 29.385 42.543 29.698 43.0719 30.0703C43.4513 30.3386 43.8342 30.6018 44.2207 30.8598C45.2885 31.57 45.9423 32.2157 46.3257 32.6726C46.4675 32.8388 46.5971 33.015 46.7136 33.1996C46.7399 33.2415 46.7649 33.2842 46.7884 33.3277L46.7993 33.3479L47.7328 35.6549C47.9353 36.1544 48.3083 36.567 48.7863 36.82C49.2644 37.073 49.8168 37.1503 50.3465 37.0383L52.0109 36.6863C52.3528 36.6141 52.6737 36.4654 52.9492 36.2515C53.2247 36.0375 53.4476 35.764 53.601 35.4516L56.4356 29.6778C56.6034 29.3361 56.7011 28.9647 56.7229 28.5851C56.7447 28.2054 56.6901 27.8253 56.5625 27.4669C56.4349 27.1085 56.2367 26.779 55.9795 26.4976C55.7224 26.2162 55.4114 25.9886 55.0648 25.8281L50.0109 23.4903C49.6865 23.3403 49.3314 23.2675 48.9738 23.2778C48.6162 23.2881 48.266 23.3811 47.9509 23.5495C47.6357 23.7179 47.3644 23.957 47.1584 24.2479C46.9524 24.5387 46.8174 24.8733 46.7642 25.2251L46.5263 26.7913C46.2793 26.6779 46.0041 26.559 45.7177 26.4442C45.1007 26.1999 44.3904 25.9636 43.7797 25.8846C43.2126 25.8099 42.6098 25.7784 42.0706 25.9335C41.4924 26.1002 41.0203 26.4726 40.7323 27.1123"/>
</mask>
<path d="M40.7332 27.1136C40.3665 27.9266 40.9019 28.6853 41.4589 29.0109C42.1005 29.385 42.543 29.698 43.0719 30.0703C43.4513 30.3386 43.8342 30.6018 44.2207 30.8598C45.2885 31.57 45.9423 32.2157 46.3257 32.6726C46.4675 32.8388 46.5971 33.015 46.7136 33.1996C46.7399 33.2415 46.7649 33.2842 46.7884 33.3277L46.7993 33.3479L47.7328 35.6549C47.9353 36.1544 48.3083 36.567 48.7863 36.82C49.2644 37.073 49.8168 37.1503 50.3465 37.0383L52.0109 36.6863C52.3528 36.6141 52.6737 36.4654 52.9492 36.2515C53.2247 36.0375 53.4476 35.764 53.601 35.4516L56.4356 29.6778C56.6034 29.3361 56.7011 28.9647 56.7229 28.5851C56.7447 28.2054 56.6901 27.8253 56.5625 27.4669C56.4349 27.1085 56.2367 26.779 55.9795 26.4976C55.7224 26.2162 55.4114 25.9886 55.0648 25.8281L50.0109 23.4903C49.6865 23.3403 49.3314 23.2675 48.9738 23.2778C48.6162 23.2881 48.266 23.3811 47.9509 23.5495C47.6357 23.7179 47.3644 23.957 47.1584 24.2479C46.9524 24.5387 46.8174 24.8733 46.7642 25.2251L46.5263 26.7913C46.2793 26.6779 46.0041 26.559 45.7177 26.4442C45.1007 26.1999 44.3904 25.9636 43.7797 25.8846C43.2126 25.8099 42.6098 25.7784 42.0706 25.9335C41.4924 26.1002 41.0203 26.4726 40.7323 27.1123" fill="#EFB479"/>
<path d="M46.2665 33.5272L46.2673 33.5296L47.3388 33.1789L47.338 33.1765L46.2665 33.5272ZM41.4589 29.0109L40.8888 29.9835L40.8898 29.9841L41.4589 29.0109ZM43.0719 30.0703L43.7238 29.1504L43.7217 29.149L43.0719 30.0703ZM44.2207 30.8598L43.5938 31.7968L43.5954 31.7979L44.2207 30.8598ZM46.3257 32.6726L45.4617 33.3972L45.4674 33.4039L46.3257 32.6726ZM46.7136 33.1996L47.6683 32.5995L47.6671 32.5976L46.7136 33.1996ZM46.7884 33.3277L47.78 32.7907L47.7799 32.7906L46.7884 33.3277ZM46.7993 33.3479L47.8442 32.9242L47.8207 32.866L47.7909 32.8109L46.7993 33.3479ZM47.7328 35.6549L46.6879 36.0787L46.6882 36.0793L47.7328 35.6549ZM50.3465 37.0383L50.5781 38.1403L50.5781 38.1403L50.3465 37.0383ZM52.0109 36.6863L51.7795 35.5843L51.7793 35.5843L52.0109 36.6863ZM53.601 35.4516L54.6126 35.9467L54.6126 35.9466L53.601 35.4516ZM56.4356 29.6778L55.4241 29.1827L55.424 29.1828L56.4356 29.6778ZM55.0648 25.8281L55.5398 24.8059L55.5395 24.8057L55.0648 25.8281ZM50.0109 23.4903L50.4855 22.4679L50.4854 22.4678L50.0109 23.4903ZM46.7642 25.2251L47.8784 25.3924L47.8785 25.3919L46.7642 25.2251ZM46.5263 26.7913L46.0543 27.815L47.4155 28.4405L47.6406 26.9587L46.5263 26.7913ZM45.7177 26.4442L46.1386 25.3986L46.1342 25.3968L45.7177 26.4442ZM43.7797 25.8846L43.6306 27.0014L43.6334 27.0018L43.7797 25.8846ZM42.0706 25.9335L41.7604 24.8511L41.7599 24.8512L42.0706 25.9335ZM39.7059 26.6519C39.3675 27.4023 39.4531 28.1433 39.7314 28.7293C39.9963 29.2872 40.4371 29.7195 40.8888 29.9835L42.029 28.0383C41.9237 27.9767 41.8183 27.8668 41.768 27.7607C41.7461 27.7147 41.7405 27.6821 41.7397 27.6622C41.7391 27.646 41.7405 27.6196 41.7605 27.5752L39.7059 26.6519ZM40.8898 29.9841C41.4852 30.3313 41.8924 30.6189 42.4221 30.9917L43.7217 29.149C43.1935 28.7772 42.7157 28.4387 42.028 28.0377L40.8898 29.9841ZM42.42 30.9902C42.8076 31.2643 43.1989 31.5332 43.5938 31.7968L44.8477 29.9228C44.4696 29.6703 44.0949 29.4129 43.7238 29.1504L42.42 30.9902ZM43.5954 31.7979C44.5762 32.4503 45.1491 33.0247 45.4617 33.3972L47.1897 31.9479C46.7355 31.4066 46.0008 30.6897 44.8461 29.9217L43.5954 31.7979ZM45.4674 33.4039C45.5744 33.5294 45.6722 33.6623 45.7601 33.8016L47.6671 32.5976C47.522 32.3676 47.3605 32.1482 47.184 31.9412L45.4674 33.4039ZM45.7589 33.7997C45.7723 33.821 45.785 33.8428 45.7969 33.8649L47.7799 32.7906C47.7448 32.7257 47.7076 32.662 47.6683 32.5995L45.7589 33.7997ZM45.7969 33.8648L45.8078 33.8849L47.7909 32.8109L47.78 32.7907L45.7969 33.8648ZM45.7545 33.7717L46.6879 36.0787L48.7777 35.2312L47.8442 32.9242L45.7545 33.7717ZM46.6882 36.0793C46.9904 36.8249 47.5466 37.4393 48.2577 37.8157L49.315 35.8243C49.07 35.6946 48.8802 35.4839 48.7775 35.2306L46.6882 36.0793ZM48.2577 37.8157C48.9687 38.192 49.7902 38.3069 50.5781 38.1403L50.1149 35.9362C49.8435 35.9936 49.56 35.954 49.315 35.8243L48.2577 37.8157ZM50.5781 38.1403L52.2425 37.7884L51.7793 35.5843L50.1149 35.9362L50.5781 38.1403ZM52.2423 37.7884C52.751 37.681 53.229 37.4596 53.6398 37.1406L52.2587 35.3623C52.1184 35.4712 51.9546 35.5473 51.7795 35.5843L52.2423 37.7884ZM53.6398 37.1406C54.0506 36.8216 54.3834 36.4134 54.6126 35.9467L52.5894 34.9566C52.5118 35.1146 52.3989 35.2534 52.2587 35.3623L53.6398 37.1406ZM54.6126 35.9466L57.4472 30.1727L55.424 29.1828L52.5894 34.9567L54.6126 35.9466ZM57.4471 30.1729C57.6813 29.6962 57.8176 29.1777 57.848 28.6478L55.5977 28.5223C55.5845 28.7516 55.5256 28.9761 55.4241 29.1827L57.4471 30.1729ZM57.848 28.6478C57.8784 28.1179 57.8023 27.5875 57.6243 27.0877L55.5007 27.8461C55.578 28.0631 55.6109 28.293 55.5977 28.5223L57.848 28.6478ZM57.6243 27.0877C57.4464 26.5879 57.1702 26.1288 56.8122 25.7371L55.1469 27.258C55.3032 27.4291 55.4234 27.6291 55.5007 27.8461L57.6243 27.0877ZM56.8122 25.7371C56.4542 25.3455 56.0216 25.029 55.5398 24.8059L54.5897 26.8504C54.8012 26.9483 54.9905 27.0869 55.1469 27.258L56.8122 25.7371ZM55.5395 24.8057L50.4855 22.4679L49.5362 24.5127L54.5901 26.8505L55.5395 24.8057ZM50.4854 22.4678C50.0029 22.2447 49.4749 22.1366 48.9432 22.1518L49.0045 24.4038C49.1879 24.3985 49.3701 24.4359 49.5364 24.5128L50.4854 22.4678ZM48.9432 22.1518C48.4114 22.1671 47.8902 22.3055 47.4207 22.5563L48.481 24.5427C48.6418 24.4568 48.821 24.4091 49.0045 24.4038L48.9432 22.1518ZM47.4207 22.5563C46.9513 22.8071 46.5465 23.1637 46.2389 23.598L48.0779 24.8977C48.1823 24.7503 48.3202 24.6287 48.481 24.5427L47.4207 22.5563ZM46.2389 23.598C45.9313 24.0323 45.7295 24.5323 45.6499 25.0582L47.8785 25.3919C47.9054 25.2143 47.9736 25.0451 48.0779 24.8977L46.2389 23.598ZM45.6499 25.0578L45.4121 26.624L47.6406 26.9587L47.8784 25.3924L45.6499 25.0578ZM46.9984 25.7677C46.7347 25.6466 46.4424 25.5203 46.1386 25.3986L45.2968 27.4898C45.5658 27.5976 45.824 27.7092 46.0543 27.815L46.9984 25.7677ZM46.1342 25.3968C45.4941 25.1434 44.679 24.8648 43.9261 24.7675L43.6334 27.0018C44.1019 27.0624 44.7072 27.2564 45.3012 27.4916L46.1342 25.3968ZM43.9288 24.7678C43.3264 24.6884 42.5318 24.6291 41.7604 24.8511L42.3808 27.016C42.6878 26.9276 43.0988 26.9313 43.6306 27.0014L43.9288 24.7678ZM41.7599 24.8512C40.8722 25.107 40.1326 25.7008 39.7047 26.6513L41.7598 27.5732C41.9079 27.2444 42.1125 27.0933 42.3813 27.0158L41.7599 24.8512Z" fill="black" mask="url(#path-4-inside-1_417_18)"/>
<mask id="path-6-inside-2_417_18" fill="white">
<path d="M10.029 102.876C9.66226 102.063 10.1977 101.304 10.7547 100.979C11.3962 100.605 11.8387 100.292 12.3677 99.9194C12.747 99.6512 13.13 99.388 13.5165 99.13C14.5843 98.4198 15.2381 97.7741 15.6215 97.3172C15.7633 97.1509 15.8929 96.9748 16.0094 96.7901C16.0357 96.7482 16.0607 96.7055 16.0842 96.662L16.0951 96.6418L17.0286 94.3348C17.231 93.8353 17.6041 93.4228 18.0821 93.1698C18.5602 92.9168 19.1126 92.8395 19.6423 92.9515L21.3067 93.3034C21.6486 93.3756 21.9695 93.5244 22.245 93.7383C22.5205 93.9522 22.7434 94.2257 22.8968 94.5381L25.7314 100.312C25.8992 100.654 25.9969 101.025 26.0186 101.405C26.0404 101.784 25.9859 102.164 25.8583 102.523C25.7307 102.881 25.5325 103.211 25.2753 103.492C25.0182 103.774 24.7072 104.001 24.3606 104.162L19.3066 106.499C18.9823 106.649 18.6272 106.722 18.2696 106.712C17.912 106.702 17.5618 106.609 17.2466 106.44C16.9315 106.272 16.6602 106.033 16.4542 105.742C16.2482 105.451 16.1132 105.116 16.06 104.765L15.8221 103.198C15.5751 103.312 15.2998 103.431 15.0135 103.546C14.3964 103.79 13.6862 104.026 13.0755 104.105C12.5084 104.18 11.9055 104.211 11.3664 104.056C10.7882 103.89 10.3161 103.517 10.028 102.877"/>
</mask>
<path d="M10.029 102.876C9.66226 102.063 10.1977 101.304 10.7547 100.979C11.3962 100.605 11.8387 100.292 12.3677 99.9194C12.747 99.6512 13.13 99.388 13.5165 99.13C14.5843 98.4198 15.2381 97.7741 15.6215 97.3172C15.7633 97.1509 15.8929 96.9748 16.0094 96.7901C16.0357 96.7482 16.0607 96.7055 16.0842 96.662L16.0951 96.6418L17.0286 94.3348C17.231 93.8353 17.6041 93.4228 18.0821 93.1698C18.5602 92.9168 19.1126 92.8395 19.6423 92.9515L21.3067 93.3034C21.6486 93.3756 21.9695 93.5244 22.245 93.7383C22.5205 93.9522 22.7434 94.2257 22.8968 94.5381L25.7314 100.312C25.8992 100.654 25.9969 101.025 26.0186 101.405C26.0404 101.784 25.9859 102.164 25.8583 102.523C25.7307 102.881 25.5325 103.211 25.2753 103.492C25.0182 103.774 24.7072 104.001 24.3606 104.162L19.3066 106.499C18.9823 106.649 18.6272 106.722 18.2696 106.712C17.912 106.702 17.5618 106.609 17.2466 106.44C16.9315 106.272 16.6602 106.033 16.4542 105.742C16.2482 105.451 16.1132 105.116 16.06 104.765L15.8221 103.198C15.5751 103.312 15.2998 103.431 15.0135 103.546C14.3964 103.79 13.6862 104.026 13.0755 104.105C12.5084 104.18 11.9055 104.211 11.3664 104.056C10.7882 103.89 10.3161 103.517 10.028 102.877" fill="#EFB479"/>
<path d="M15.5622 96.4626L15.563 96.4602L16.6346 96.8108L16.6338 96.8133L15.5622 96.4626ZM10.7547 100.979L10.1846 100.006L10.1856 100.006L10.7547 100.979ZM12.3677 99.9194L13.0196 100.839L13.0175 100.841L12.3677 99.9194ZM13.5165 99.13L12.8895 98.1929L12.8911 98.1919L13.5165 99.13ZM15.6215 97.3172L14.7575 96.5925L14.7632 96.5858L15.6215 97.3172ZM16.0094 96.7901L16.9641 97.3903L16.9629 97.3921L16.0094 96.7901ZM16.0842 96.662L17.0757 97.199L17.0757 97.1991L16.0842 96.662ZM16.0951 96.6418L17.14 97.0656L17.1165 97.1237L17.0866 97.1789L16.0951 96.6418ZM17.0286 94.3348L15.9837 93.9111L15.984 93.9105L17.0286 94.3348ZM19.6423 92.9515L19.8739 91.8494L19.8739 91.8494L19.6423 92.9515ZM21.3067 93.3034L21.0753 94.4055L21.0751 94.4055L21.3067 93.3034ZM22.8968 94.5381L23.9083 94.0431L23.9084 94.0431L22.8968 94.5381ZM25.7314 100.312L24.7199 100.807L24.7198 100.807L25.7314 100.312ZM24.3606 104.162L24.8356 105.184L24.8352 105.184L24.3606 104.162ZM19.3066 106.499L19.7813 107.522L19.7812 107.522L19.3066 106.499ZM16.06 104.765L17.1742 104.597L17.1743 104.598L16.06 104.765ZM15.8221 103.198L15.35 102.175L16.7113 101.549L16.9363 103.031L15.8221 103.198ZM15.0135 103.546L15.4343 104.591L15.4299 104.593L15.0135 103.546ZM13.0755 104.105L12.9264 102.988L12.9291 102.988L13.0755 104.105ZM11.3664 104.056L11.0561 105.139L11.0556 105.139L11.3664 104.056ZM9.00171 103.338C8.66324 102.587 8.74892 101.846 9.02714 101.26C9.29204 100.703 9.7329 100.27 10.1846 100.006L11.3247 101.951C11.2195 102.013 11.1141 102.123 11.0637 102.229C11.0419 102.275 11.0363 102.308 11.0355 102.328C11.0349 102.344 11.0363 102.37 11.0563 102.415L9.00171 103.338ZM10.1856 100.006C10.781 99.6584 11.1882 99.3709 11.7178 98.9981L13.0175 100.841C12.4893 101.213 12.0115 101.551 11.3238 101.952L10.1856 100.006ZM11.7158 98.9995C12.1034 98.7254 12.4946 98.4565 12.8895 98.1929L14.1435 100.067C13.7654 100.319 13.3907 100.577 13.0196 100.839L11.7158 98.9995ZM12.8911 98.1919C13.872 97.5395 14.4449 96.9651 14.7575 96.5925L16.4855 98.0418C16.0313 98.5831 15.2965 99.3001 14.1419 100.068L12.8911 98.1919ZM14.7632 96.5858C14.8702 96.4603 14.968 96.3274 15.0559 96.1881L16.9629 97.3921C16.8178 97.6221 16.6563 97.8415 16.4798 98.0485L14.7632 96.5858ZM15.0547 96.19C15.0681 96.1687 15.0808 96.147 15.0927 96.1249L17.0757 97.1991C17.0406 97.264 17.0033 97.3278 16.9641 97.3903L15.0547 96.19ZM15.0927 96.125L15.1036 96.1048L17.0866 97.1789L17.0757 97.199L15.0927 96.125ZM15.0502 96.2181L15.9837 93.9111L18.0735 94.7586L17.14 97.0656L15.0502 96.2181ZM15.984 93.9105C16.2861 93.1648 16.8424 92.5505 17.5535 92.1741L18.6107 94.1655C18.3658 94.2951 18.1759 94.5058 18.0733 94.7591L15.984 93.9105ZM17.5535 92.1741C18.2645 91.7978 19.086 91.6828 19.8739 91.8494L19.4107 94.0535C19.1392 93.9961 18.8558 94.0358 18.6107 94.1655L17.5535 92.1741ZM19.8739 91.8494L21.5383 92.2014L21.0751 94.4055L19.4107 94.0535L19.8739 91.8494ZM21.5381 92.2013C22.0468 92.3088 22.5247 92.5302 22.9355 92.8491L21.5545 94.6274C21.4142 94.5186 21.2504 94.4425 21.0753 94.4055L21.5381 92.2013ZM22.9355 92.8491C23.3463 93.1681 23.6792 93.5764 23.9083 94.0431L21.8852 95.0331C21.8076 94.8751 21.6947 94.7363 21.5545 94.6274L22.9355 92.8491ZM23.9084 94.0431L26.743 99.817L24.7198 100.807L21.8852 95.033L23.9084 94.0431ZM26.7429 99.8168C26.9771 100.294 27.1134 100.812 27.1438 101.342L24.8935 101.467C24.8803 101.238 24.8213 101.014 24.7199 100.807L26.7429 99.8168ZM27.1438 101.342C27.1742 101.872 27.0981 102.402 26.9201 102.902L24.7965 102.144C24.8737 101.927 24.9066 101.697 24.8935 101.467L27.1438 101.342ZM26.9201 102.902C26.7421 103.402 26.4659 103.861 26.108 104.253L24.4427 102.732C24.599 102.561 24.7192 102.361 24.7965 102.144L26.9201 102.902ZM26.108 104.253C25.75 104.644 25.3174 104.961 24.8356 105.184L23.8855 103.139C24.097 103.041 24.2863 102.903 24.4427 102.732L26.108 104.253ZM24.8352 105.184L19.7813 107.522L18.832 105.477L23.8859 103.139L24.8352 105.184ZM19.7812 107.522C19.2987 107.745 18.7707 107.853 18.239 107.838L18.3002 105.586C18.4837 105.591 18.6658 105.554 18.8321 105.477L19.7812 107.522ZM18.239 107.838C17.7072 107.823 17.1859 107.684 16.7165 107.433L17.7767 105.447C17.9376 105.533 18.1168 105.581 18.3002 105.586L18.239 107.838ZM16.7165 107.433C16.2471 107.183 15.8423 106.826 15.5347 106.392L17.3737 105.092C17.4781 105.239 17.6159 105.361 17.7767 105.447L16.7165 107.433ZM15.5347 106.392C15.2271 105.957 15.0253 105.457 14.9456 104.932L17.1743 104.598C17.2012 104.775 17.2693 104.945 17.3737 105.092L15.5347 106.392ZM14.9457 104.932L14.7079 103.366L16.9363 103.031L17.1742 104.597L14.9457 104.932ZM16.2942 104.222C16.0305 104.343 15.7381 104.469 15.4343 104.591L14.5926 102.5C14.8616 102.392 15.1197 102.281 15.35 102.175L16.2942 104.222ZM15.4299 104.593C14.7899 104.846 13.9747 105.125 13.2218 105.222L12.9291 102.988C13.3977 102.927 14.003 102.733 14.597 102.498L15.4299 104.593ZM13.2246 105.222C12.6222 105.301 11.8276 105.361 11.0561 105.139L11.6766 102.974C11.9835 103.062 12.3946 103.058 12.9264 102.988L13.2246 105.222ZM11.0556 105.139C10.168 104.883 9.42843 104.289 9.00044 103.338L11.0556 102.417C11.2037 102.745 11.4083 102.896 11.6771 102.974L11.0556 105.139Z" fill="black" mask="url(#path-6-inside-2_417_18)"/>
</svg>
