<?xml version="1.0" standalone="no"?>
<!DOCTYPE svg PUBLIC "-//W3C//DTD SVG 20010904//EN"
 "http://www.w3.org/TR/2001/REC-SVG-20010904/DTD/svg10.dtd">
<svg version="1.0" xmlns="http://www.w3.org/2000/svg"
 width="700.000000pt" height="700.000000pt" viewBox="0 0 700.000000 700.000000"
 preserveAspectRatio="xMidYMid meet">
<metadata>
Created by potrace 1.14, written by Peter Selinger 2001-2017
</metadata>
<g transform="translate(0.000000,700.000000) scale(0.100000,-0.100000)"
fill="#000000" stroke="none">
<path d="M2619 5765 c-34 -18 -58 -55 -65 -102 -4 -21 -7 -45 -9 -53 -1 -8 -7
-14 -11 -13 -5 2 -34 12 -64 22 -55 19 -87 24 -148 22 -45 -1 -102 -57 -102
-98 1 -40 21 -60 138 -138 143 -95 182 -136 222 -231 18 -44 37 -87 42 -98 14
-27 10 -287 -6 -339 -20 -66 -89 -178 -143 -230 -46 -44 -98 -79 -403 -266
-210 -130 -288 -150 -470 -126 -30 4 -62 8 -70 10 -79 10 -134 36 -205 95 -58
49 -131 88 -196 105 -58 16 -235 10 -314 -10 -152 -39 -266 -160 -311 -330
-40 -149 23 -318 151 -407 56 -39 146 -65 234 -67 42 -1 87 -5 101 -8 38 -9
120 -55 120 -67 0 -7 -24 -81 -54 -166 -30 -85 -60 -182 -67 -215 -7 -33 -13
-62 -14 -65 0 -3 -4 -21 -8 -40 -8 -40 -14 -67 -27 -130 -51 -235 -67 -331
-64 -390 3 -66 58 -414 73 -460 5 -16 4 -34 -5 -50 -22 -41 -64 -140 -64 -150
0 -20 -103 -110 -206 -179 -111 -75 -133 -98 -134 -139 0 -33 60 -92 96 -93
65 -3 110 3 170 25 l64 24 0 -37 c1 -53 33 -117 69 -135 44 -23 93 -20 163 13
267 123 280 131 307 183 30 58 19 99 -77 294 -50 101 -87 186 -82 189 10 6 40
96 102 305 81 278 76 267 236 510 191 289 190 289 472 190 96 -34 195 -68 220
-76 25 -8 52 -18 60 -21 8 -3 84 -29 168 -58 147 -51 199 -77 562 -277 183
-102 490 -268 494 -268 2 0 37 -15 78 -34 205 -94 433 -198 513 -234 87 -39
181 -68 295 -91 89 -18 92 -19 165 -36 39 -9 77 -18 85 -20 15 -3 155 -35 270
-61 36 -8 74 -16 85 -18 118 -23 288 -69 305 -83 43 -37 62 -81 67 -161 6 -88
18 -123 59 -171 65 -78 195 -96 279 -38 53 36 74 70 106 171 46 143 42 243
-13 334 l-20 32 29 -12 c103 -45 104 -46 201 -208 l93 -155 124 -78 c149 -93
173 -102 225 -81 59 24 77 71 85 224 3 69 8 152 10 185 2 33 7 107 10 165 12
214 15 257 20 340 3 47 8 108 10 135 2 28 7 86 10 130 3 44 8 109 11 145 3 36
7 90 9 120 3 30 8 110 11 177 l6 123 -35 35 c-33 33 -57 41 -108 36 -9 -1 -88
-34 -175 -73 -88 -38 -199 -84 -249 -100 -49 -16 -107 -36 -129 -44 -21 -8
-41 -13 -43 -10 -3 3 6 19 20 35 72 87 55 216 -39 280 -49 34 -113 36 -239 8
-183 -40 -282 -25 -396 61 -30 22 -128 100 -219 171 -169 134 -210 159 -385
229 -187 75 -262 87 -415 68 -30 -3 -77 -9 -105 -11 -27 -3 -61 -8 -75 -10
-97 -18 -620 -26 -755 -11 -38 4 -110 14 -160 22 -49 9 -103 17 -118 20 -15 2
-54 10 -85 18 -31 8 -68 17 -82 20 -71 12 -238 59 -257 71 -11 8 -26 30 -33
49 -21 65 -2 87 178 212 103 72 168 161 220 304 21 55 25 83 25 180 0 105 -4
131 -46 291 -26 97 -50 187 -55 200 -8 20 5 52 73 189 46 91 87 182 93 202 14
50 -2 110 -39 146 -16 15 -99 60 -186 100 -164 75 -204 84 -254 57z m1776
-2747 c6 -3 32 -9 59 -12 27 -4 52 -9 55 -10 3 -2 29 -7 56 -10 128 -17 166
-33 390 -169 99 -61 205 -123 235 -140 30 -16 60 -33 65 -38 45 -35 272 -61
332 -38 21 8 23 6 23 -22 0 -42 28 -86 65 -103 16 -8 94 -27 172 -42 79 -16
139 -31 135 -35 -4 -3 -104 -39 -222 -79 -118 -40 -229 -81 -246 -91 -28 -17
-58 -64 -59 -94 -1 -13 -4 -12 -100 14 -44 12 -197 53 -340 91 -143 38 -278
75 -300 82 -22 7 -141 61 -265 121 l-225 109 -157 160 c-86 88 -162 173 -168
189 -10 23 -9 34 6 66 11 21 29 43 42 49 24 12 428 13 447 2z"/>
</g>
</svg>
